<svg width="84" height="30" viewBox="0 0 84 30" fill="none" xmlns="http://www.w3.org/2000/svg">
<rect x="0.5" y="0.5" width="83" height="29" rx="14.5" fill="white"/>
<rect x="0.5" y="0.5" width="83" height="29" rx="14.5" stroke="#E6E6E6"/>
<circle cx="16" cy="15" r="8" fill="url(#paint0_linear_149_537)"/>
<path d="M34.544 22H32.4474L37.1584 8.90909H39.4403L44.1513 22H42.0547L38.3537 11.2869H38.2514L34.544 22ZM34.8956 16.8736H41.6967V18.5355H34.8956V16.8736ZM45.8148 8.90909L49.4583 19.571H49.6053L53.2488 8.90909H55.3837L50.6728 22H48.3908L43.6799 8.90909H45.8148ZM57.044 22H54.9474L59.6584 8.90909H61.9403L66.6513 22H64.5547L60.8537 11.2869H60.7514L57.044 22ZM57.3956 16.8736H64.1967V18.5355H57.3956V16.8736Z" fill="#1B1D1F"/>
<defs>
<linearGradient id="paint0_linear_149_537" x1="16" y1="7" x2="16" y2="23" gradientUnits="userSpaceOnUse">
<stop stop-color="#017AFF"/>
<stop offset="1" stop-color="#B4F2FF"/>
</linearGradient>
</defs>
</svg>
